<?xml version="1.0" encoding="utf-8"?>
<!-- Generator: Adobe Illustrator 25.2.3, SVG Export Plug-In . SVG Version: 6.00 Build 0)  -->
<svg version="1.1" xmlns="http://www.w3.org/2000/svg" xmlns:xlink="http://www.w3.org/1999/xlink" x="0px" y="0px"
	 viewBox="0 0 150 150" style="enable-background:new 0 0 150 150;" xml:space="preserve">
<style type="text/css">
	.st0{fill:#8C1F5B;}
	.st1{fill:#F0F2F2;}
	.st2{fill:#FFFFFF;stroke:#8C1F5B;stroke-width:4.7806;stroke-miterlimit:10;}
	.st3{fill:#FFFFFF;stroke:#8C1F5B;stroke-width:4.9333;stroke-miterlimit:10;}
	.st4{fill:#FFFFFF;stroke:#8C1F5B;stroke-width:5;stroke-miterlimit:10;}
	.st5{fill:none;stroke:#8C1F5B;stroke-width:4.9239;stroke-miterlimit:10;}
	.st6{fill:#FFFFFF;stroke:#8C1F5B;stroke-width:4.9342;stroke-miterlimit:10;}
	.st7{fill:#8C1F5B;stroke:#FFFFFF;stroke-width:4.9396;stroke-miterlimit:10;}
	.st8{fill:#FFFFFF;}
</style>
<g id="mail">
	<g>
		<g>
			<path class="st0" d="M10,147.5c-4.14,0-7.5-3.36-7.5-7.5V10c0-4.14,3.36-7.5,7.5-7.5h130c4.14,0,7.5,3.36,7.5,7.5v130
				c0,4.14-3.36,7.5-7.5,7.5H10z"/>
			<path class="st0" d="M140,5c2.76,0,5,2.24,5,5v130c0,2.76-2.24,5-5,5H10c-2.76,0-5-2.24-5-5V10c0-2.76,2.24-5,5-5H140 M140,0H10
				C4.48,0,0,4.48,0,10v130c0,5.52,4.48,10,10,10h130c5.52,0,10-4.48,10-10V10C150,4.48,145.52,0,140,0L140,0z"/>
		</g>
		<g>
			<g>
				<path class="st1" d="M137.56,29.44v91.11H12.44V29.44H137.56 M138.64,24H11.36C8.95,24,7,25.95,7,28.36v93.29
					c0,2.41,1.95,4.36,4.36,4.36h127.29c2.41,0,4.36-1.95,4.36-4.36V28.36C143,25.95,141.05,24,138.64,24L138.64,24z"/>
			</g>
			<g>
				<path class="st1" d="M75.03,49.93l57.87,70.63l-115.8,0.18L75.03,49.93 M75.03,43.87c-1.25,0-2.5,0.53-3.37,1.59l-60.22,73.62
					c-2.32,2.84-0.3,7.1,3.36,7.1c0,0,0.01,0,0.01,0L135.2,126c3.67-0.01,5.68-4.27,3.36-7.1L78.4,45.46
					C77.53,44.4,76.28,43.87,75.03,43.87L75.03,43.87z"/>
			</g>
			<g>
				<path class="st0" d="M74.33,105.76c-0.29,0-0.85-0.08-1.28-0.62L12.72,29.36c-0.58-0.72-0.33-1.45-0.19-1.72
					s0.54-0.92,1.47-0.92h120.68c0.92,0,1.33,0.65,1.47,0.92c0.13,0.28,0.38,1-0.19,1.72l-60.34,75.78
					C75.18,105.68,74.63,105.76,74.33,105.76z"/>
				<path class="st1" d="M132.42,29.43l-58.08,72.95L16.25,29.43H132.42 M134.67,24H14c-3.64,0-5.67,4.21-3.4,7.06l60.34,75.78
					c0.87,1.09,2.14,1.64,3.4,1.64c1.27,0,2.53-0.55,3.4-1.64l60.34-75.78C140.34,28.21,138.32,24,134.67,24L134.67,24z"/>
			</g>
		</g>
	</g>
</g>
<g id="map">
</g>
</svg>
