<svg xmlns="http://www.w3.org/2000/svg" viewBox="0 0 150 150"><defs><style>.a{fill:#8c1f5b;}.b{fill:#f0f2f2;}</style></defs><rect class="a" x="2.5" y="2.5" width="145" height="145" rx="1.5"/><path class="a" d="M145,5V145H5V5H145m1-5H4A4,4,0,0,0,0,4V146a4,4,0,0,0,4,4H146a4,4,0,0,0,4-4V4a4,4,0,0,0-4-4Z"/><path class="b" d="M135,35v80H15V35H135m1-5H14a4,4,0,0,0-4,4v82a4,4,0,0,0,4,4H136a4,4,0,0,0,4-4V34a4,4,0,0,0-4-4Z"/><path class="b" d="M75.031,52.713,130.312,115,19.7,115.161,75.031,52.713m0-5.507a3.984,3.984,0,0,0-2.994,1.347L14.479,113.511a4,4,0,0,0,2.993,6.653h.006L132.54,120a4,4,0,0,0,2.986-6.655L78.023,48.55a3.982,3.982,0,0,0-2.992-1.344Z"/><path class="a" d="M74.363,102.376a1.482,1.482,0,0,1-1.136-.521L15.548,34.979A1.5,1.5,0,0,1,16.684,32.5h115.36a1.5,1.5,0,0,1,1.136,2.479L75.5,101.855A1.482,1.482,0,0,1,74.363,102.376Z"/><path class="b" d="M129.861,35l-55.5,64.345L18.866,35H129.861m2.183-5H16.683a4,4,0,0,0-3.029,6.612l57.68,66.876a4,4,0,0,0,6.058,0l57.681-66.876A4,4,0,0,0,132.044,30Z"/></svg>